<mxfile host="app.diagrams.net" modified="2023-07-02T06:56:11.963Z" agent="Mozilla/5.0 (Windows NT 10.0; Win64; x64; rv:109.0) Gecko/20100101 Firefox/114.0" etag="WYzmDvHLnR-NJpUBhBdw" version="21.5.2" type="github">
  <diagram name="Page-1" id="nej7vDgXuauU31HBkJ3V">
    <mxGraphModel dx="880" dy="508" grid="1" gridSize="10" guides="1" tooltips="1" connect="1" arrows="1" fold="1" page="1" pageScale="1" pageWidth="827" pageHeight="1169" math="0" shadow="0">
      <root>
        <mxCell id="0" />
        <mxCell id="1" parent="0" />
        <mxCell id="WFXsT3-JVk1bgTLL1MKv-2" value="Pengguna" style="shape=umlActor;html=1;verticalLabelPosition=bottom;verticalAlign=top;align=center;" parent="1" vertex="1">
          <mxGeometry x="760" y="270" width="50" height="100" as="geometry" />
        </mxCell>
        <mxCell id="WFXsT3-JVk1bgTLL1MKv-3" value="Administrator" style="shape=umlActor;html=1;verticalLabelPosition=bottom;verticalAlign=top;align=center;" parent="1" vertex="1">
          <mxGeometry x="20" y="270" width="50" height="100" as="geometry" />
        </mxCell>
        <mxCell id="WFXsT3-JVk1bgTLL1MKv-7" value="Preview File" style="ellipse;whiteSpace=wrap;html=1;" parent="1" vertex="1">
          <mxGeometry x="414" y="140" width="140" height="70" as="geometry" />
        </mxCell>
        <mxCell id="WFXsT3-JVk1bgTLL1MKv-8" value="Note File" style="ellipse;whiteSpace=wrap;html=1;" parent="1" vertex="1">
          <mxGeometry x="414" y="240" width="140" height="70" as="geometry" />
        </mxCell>
        <mxCell id="WFXsT3-JVk1bgTLL1MKv-9" value="Pencarian File" style="ellipse;whiteSpace=wrap;html=1;" parent="1" vertex="1">
          <mxGeometry x="419" y="340" width="140" height="70" as="geometry" />
        </mxCell>
        <mxCell id="WFXsT3-JVk1bgTLL1MKv-10" value="Download File" style="ellipse;whiteSpace=wrap;html=1;" parent="1" vertex="1">
          <mxGeometry x="419" y="440" width="140" height="70" as="geometry" />
        </mxCell>
        <mxCell id="WFXsT3-JVk1bgTLL1MKv-11" value="" style="edgeStyle=none;html=1;endArrow=none;verticalAlign=bottom;rounded=0;exitX=1;exitY=0.5;exitDx=0;exitDy=0;" parent="1" source="WFXsT3-JVk1bgTLL1MKv-7" edge="1">
          <mxGeometry width="160" relative="1" as="geometry">
            <mxPoint x="600" y="319.41" as="sourcePoint" />
            <mxPoint x="720" y="319" as="targetPoint" />
          </mxGeometry>
        </mxCell>
        <mxCell id="WFXsT3-JVk1bgTLL1MKv-12" value="" style="edgeStyle=none;html=1;endArrow=none;verticalAlign=bottom;rounded=0;exitX=1;exitY=0.5;exitDx=0;exitDy=0;" parent="1" source="WFXsT3-JVk1bgTLL1MKv-8" edge="1">
          <mxGeometry width="160" relative="1" as="geometry">
            <mxPoint x="580" y="290" as="sourcePoint" />
            <mxPoint x="720" y="320" as="targetPoint" />
          </mxGeometry>
        </mxCell>
        <mxCell id="WFXsT3-JVk1bgTLL1MKv-13" value="" style="edgeStyle=none;html=1;endArrow=none;verticalAlign=bottom;rounded=0;exitX=1;exitY=0.5;exitDx=0;exitDy=0;" parent="1" source="WFXsT3-JVk1bgTLL1MKv-9" edge="1">
          <mxGeometry width="160" relative="1" as="geometry">
            <mxPoint x="564" y="285" as="sourcePoint" />
            <mxPoint x="720" y="320" as="targetPoint" />
          </mxGeometry>
        </mxCell>
        <mxCell id="WFXsT3-JVk1bgTLL1MKv-14" value="" style="edgeStyle=none;html=1;endArrow=none;verticalAlign=bottom;rounded=0;exitX=1;exitY=0.5;exitDx=0;exitDy=0;" parent="1" source="WFXsT3-JVk1bgTLL1MKv-10" edge="1">
          <mxGeometry width="160" relative="1" as="geometry">
            <mxPoint x="569" y="385" as="sourcePoint" />
            <mxPoint x="720" y="320" as="targetPoint" />
          </mxGeometry>
        </mxCell>
        <mxCell id="WFXsT3-JVk1bgTLL1MKv-15" value="" style="edgeStyle=none;html=1;endArrow=none;verticalAlign=bottom;rounded=0;" parent="1" edge="1">
          <mxGeometry width="160" relative="1" as="geometry">
            <mxPoint x="720" y="319.40999999999997" as="sourcePoint" />
            <mxPoint x="760" y="319.40999999999997" as="targetPoint" />
          </mxGeometry>
        </mxCell>
        <mxCell id="WFXsT3-JVk1bgTLL1MKv-17" value="Upload Data" style="ellipse;whiteSpace=wrap;html=1;" parent="1" vertex="1">
          <mxGeometry x="240" y="140" width="140" height="70" as="geometry" />
        </mxCell>
        <mxCell id="WFXsT3-JVk1bgTLL1MKv-18" value="Edit Data" style="ellipse;whiteSpace=wrap;html=1;" parent="1" vertex="1">
          <mxGeometry x="240" y="240" width="140" height="70" as="geometry" />
        </mxCell>
        <mxCell id="WFXsT3-JVk1bgTLL1MKv-19" value="Edit Folder" style="ellipse;whiteSpace=wrap;html=1;" parent="1" vertex="1">
          <mxGeometry x="245" y="340" width="140" height="70" as="geometry" />
        </mxCell>
        <mxCell id="WFXsT3-JVk1bgTLL1MKv-20" value="Edit Kategori" style="ellipse;whiteSpace=wrap;html=1;" parent="1" vertex="1">
          <mxGeometry x="245" y="440" width="140" height="70" as="geometry" />
        </mxCell>
        <mxCell id="WFXsT3-JVk1bgTLL1MKv-21" value="" style="edgeStyle=none;html=1;endArrow=none;verticalAlign=bottom;rounded=0;" parent="1" edge="1">
          <mxGeometry width="160" relative="1" as="geometry">
            <mxPoint x="80" y="319.41" as="sourcePoint" />
            <mxPoint x="120" y="320" as="targetPoint" />
          </mxGeometry>
        </mxCell>
        <mxCell id="WFXsT3-JVk1bgTLL1MKv-22" value="" style="edgeStyle=none;html=1;endArrow=none;verticalAlign=bottom;rounded=0;entryX=0;entryY=0.5;entryDx=0;entryDy=0;" parent="1" target="WFXsT3-JVk1bgTLL1MKv-17" edge="1">
          <mxGeometry width="160" relative="1" as="geometry">
            <mxPoint x="120" y="319" as="sourcePoint" />
            <mxPoint x="290" y="319.41" as="targetPoint" />
          </mxGeometry>
        </mxCell>
        <mxCell id="WFXsT3-JVk1bgTLL1MKv-23" value="" style="edgeStyle=none;html=1;endArrow=none;verticalAlign=bottom;rounded=0;entryX=0;entryY=0.5;entryDx=0;entryDy=0;" parent="1" target="WFXsT3-JVk1bgTLL1MKv-18" edge="1">
          <mxGeometry width="160" relative="1" as="geometry">
            <mxPoint x="120" y="320" as="sourcePoint" />
            <mxPoint x="250" y="185" as="targetPoint" />
          </mxGeometry>
        </mxCell>
        <mxCell id="WFXsT3-JVk1bgTLL1MKv-24" value="" style="edgeStyle=none;html=1;endArrow=none;verticalAlign=bottom;rounded=0;entryX=0;entryY=0.5;entryDx=0;entryDy=0;" parent="1" target="WFXsT3-JVk1bgTLL1MKv-19" edge="1">
          <mxGeometry width="160" relative="1" as="geometry">
            <mxPoint x="120" y="320" as="sourcePoint" />
            <mxPoint x="250" y="285" as="targetPoint" />
          </mxGeometry>
        </mxCell>
        <mxCell id="WFXsT3-JVk1bgTLL1MKv-25" value="" style="edgeStyle=none;html=1;endArrow=none;verticalAlign=bottom;rounded=0;entryX=0;entryY=0.5;entryDx=0;entryDy=0;" parent="1" target="WFXsT3-JVk1bgTLL1MKv-20" edge="1">
          <mxGeometry width="160" relative="1" as="geometry">
            <mxPoint x="120" y="320" as="sourcePoint" />
            <mxPoint x="255" y="385" as="targetPoint" />
          </mxGeometry>
        </mxCell>
        <mxCell id="fsAGvGnSYnkrfVe0bo2--1" value="&lt;div&gt;Muhamad Abdul Bari&lt;/div&gt;" style="text;html=1;strokeColor=none;fillColor=none;align=center;verticalAlign=middle;whiteSpace=wrap;rounded=0;" vertex="1" parent="1">
          <mxGeometry x="70" y="150" width="60" height="30" as="geometry" />
        </mxCell>
      </root>
    </mxGraphModel>
  </diagram>
</mxfile>
